<?xml version="1.0" encoding="utf-8"?>
<!-- Generator: Adobe Illustrator 15.1.0, SVG Export Plug-In . SVG Version: 6.00 Build 0)  -->
<!DOCTYPE svg PUBLIC "-//W3C//DTD SVG 1.1//EN" "http://www.w3.org/Graphics/SVG/1.1/DTD/svg11.dtd">
<svg version="1.1" id="Layer_1" xmlns="http://www.w3.org/2000/svg" xmlns:xlink="http://www.w3.org/1999/xlink" x="0px" y="0px"
	 width="128px" height="64px" viewBox="0 0 128 64" enable-background="new 0 0 128 64" xml:space="preserve">
<path fill="#646464" d="M127.072,7.994c1.369-2.208,0.914-5.152-0.914-6.87c-2.057-1.717-4.797-1.226-6.396,0.982
	c-0.229,0.245-25.586,32.382-55.74,32.382c-29.24,0-55.74-32.382-55.968-32.627c-1.6-1.963-4.57-2.208-6.397-0.49
	C-0.17,3.086-0.399,6.275,1.2,8.238c0.457,0.736,5.94,7.36,14.62,14.72L4.17,35.96c-1.828,1.963-1.6,5.151,0.228,6.87
	c0.457,0.98,1.6,1.471,2.742,1.471s2.284-0.49,3.198-1.472l12.564-13.983c5.94,4.416,13.021,8.587,20.788,11.53l-4.797,17.418
	c-0.685,2.699,0.686,5.397,3.198,6.133h1.37c2.057,0,3.884-1.472,4.341-3.68L52.6,42.83c3.655,0.736,7.538,1.227,11.422,1.227
	c3.882,0,7.767-0.49,11.421-1.227l4.798,17.173c0.456,2.208,2.513,3.681,4.34,3.681c0.457,0,0.914,0,1.144-0.246
	c2.512-0.736,3.883-3.435,3.197-6.133l-4.797-17.173c7.768-2.944,14.848-7.114,20.788-11.53l12.336,13.738
	c0.913,0.98,2.056,1.473,3.198,1.473c1.142,0,2.283-0.49,3.197-1.473c1.828-1.963,1.828-4.906,0.229-6.869l-11.65-13.002
	C121.589,15.109,127.072,7.995,127.072,7.994L127.072,7.994z"/>
</svg>
