<?xml version="1.0" encoding="utf-8"?>
<!-- Generator: Adobe Illustrator 15.1.0, SVG Export Plug-In . SVG Version: 6.00 Build 0)  -->
<!DOCTYPE svg PUBLIC "-//W3C//DTD SVG 1.1//EN" "http://www.w3.org/Graphics/SVG/1.1/DTD/svg11.dtd">
<svg version="1.1" id="Layer_1" xmlns="http://www.w3.org/2000/svg" xmlns:xlink="http://www.w3.org/1999/xlink" x="0px" y="0px"
	 width="128px" height="128px" viewBox="0 0 128 128" enable-background="new 0 0 128 128" xml:space="preserve">
<path fill="#646464" d="M64,16c5.807,0,11.453,0.882,16.939,2.646c5.485,1.764,10.298,4.055,14.437,6.875s8.034,5.938,11.686,9.354
	s6.722,6.834,9.21,10.251c2.489,3.417,4.643,6.535,6.459,9.354c1.817,2.819,3.158,5.104,4.021,6.854L128,64
	c-0.195,0.416-0.459,0.978-0.789,1.686c-0.331,0.707-1.115,2.152-2.352,4.336c-1.238,2.183-2.557,4.336-3.958,6.459
	c-1.401,2.122-3.248,4.621-5.541,7.498c-2.294,2.877-4.661,5.558-7.104,8.043c-2.442,2.484-5.338,4.992-8.688,7.52
	c-3.35,2.528-6.781,4.674-10.293,6.438c-3.514,1.764-7.465,3.209-11.856,4.336S68.555,112.004,64,112
	c-5.806,0-11.453-0.882-16.939-2.646c-5.486-1.764-10.298-4.048-14.437-6.853c-4.139-2.806-8.034-5.902-11.686-9.291
	c-3.651-3.389-6.722-6.784-9.21-10.188c-2.489-3.402-4.642-6.506-6.459-9.312c-1.817-2.806-3.157-5.097-4.021-6.874L0,64.213
	c0.196-0.416,0.458-0.978,0.79-1.686c0.331-0.708,1.114-2.158,2.352-4.352c1.237-2.193,2.556-4.354,3.957-6.48
	c1.401-2.126,3.248-4.64,5.542-7.541s4.661-5.596,7.104-8.085c2.442-2.489,5.338-5.003,8.688-7.542
	c3.349-2.539,6.78-4.698,10.293-6.48c3.513-1.781,7.465-3.232,11.856-4.352c4.391-1.12,8.864-1.682,13.418-1.685V16z M64,26.667
	c-3.89,0-7.708,0.514-11.456,1.542s-7.129,2.354-10.144,3.979c-3.015,1.625-5.959,3.589-8.832,5.894
	c-2.873,2.304-5.358,4.574-7.456,6.811c-2.098,2.236-4.133,4.64-6.106,7.211c-1.973,2.57-3.543,4.771-4.709,6.603
	c-1.166,1.831-2.263,3.664-3.291,5.499c1.027,1.806,2.125,3.62,3.291,5.44c1.167,1.82,2.736,4.002,4.709,6.544
	s4.009,4.917,6.106,7.126c2.098,2.207,4.583,4.451,7.456,6.73c2.873,2.279,5.817,4.224,8.832,5.834
	c3.015,1.611,6.396,2.924,10.144,3.937s7.566,1.52,11.456,1.521c3.89,0,7.709-0.514,11.456-1.542s7.129-2.347,10.144-3.958
	c3.016-1.609,5.959-3.562,8.832-5.855c2.873-2.293,5.358-4.551,7.457-6.773c2.098-2.222,4.133-4.611,6.105-7.168
	c1.974-2.557,3.543-4.75,4.71-6.581c1.166-1.831,2.263-3.649,3.29-5.456c-1.027-1.806-2.124-3.625-3.29-5.456
	c-1.167-1.831-2.736-4.025-4.71-6.581c-1.973-2.557-4.008-4.946-6.105-7.168c-2.099-2.222-4.584-4.48-7.457-6.773
	c-2.873-2.293-5.816-4.245-8.832-5.856c-3.015-1.611-6.396-2.93-10.144-3.958S67.89,26.667,64,26.667L64,26.667z M64,42.667
	c5.889,0,10.916,2.083,15.082,6.251c4.168,4.167,6.252,9.195,6.252,15.083s-2.084,10.916-6.252,15.082
	C74.915,83.25,69.888,85.334,64,85.334s-10.915-2.084-15.083-6.252C44.75,74.915,42.667,69.888,42.667,64
	c0-5.888,2.084-10.915,6.251-15.083S58.112,42.667,64,42.667z M64,53.333c-2.944,0-5.458,1.042-7.542,3.125
	c-2.083,2.083-3.125,4.597-3.125,7.542c0,2.944,1.042,5.458,3.125,7.541c2.083,2.084,4.598,3.125,7.542,3.126
	c2.943,0,5.457-1.042,7.541-3.126c2.084-2.083,3.125-4.598,3.125-7.541c0.001-2.944-1.041-5.458-3.125-7.541
	C69.458,54.375,66.943,53.333,64,53.333L64,53.333z"/>
</svg>
